<svg fill="white" width="140" height="30" viewBox="0 0 140 30" xmlns="http://www.w3.org/2000/svg"><title>F37762E0-9354-48EF-95EB-205560094893</title><g fill-rule="evenodd"><path d="M102.24 24.608c-.448 0-.792-.354-.8-.823a.474.474 0 0 0-.01-.11l.004-6.592c0-.93-.31-1.706-.923-2.305a2.714 2.714 0 0 0-1.85-.792c-.366-.01-.73-.013-1.097-.013l-1.44.005a.566.566 0 0 0-.196.04.5.5 0 0 0-.32.447v9.264c0 .403-.214.72-.559.83-.1.032-.2.048-.297.048-.454 0-.799-.36-.802-.84-.004-.646-.003-1.537-.002-2.184V14.46a.473.473 0 0 0-.472-.473h-4.824a.473.473 0 0 0-.473.473v9.269c0 .407-.219.727-.569.836a.968.968 0 0 1-.284.044c-.451 0-.798-.357-.806-.83a58.743 58.743 0 0 1-.002-.953l.001-9.602c0-.42.239-.754.623-.87a.84.84 0 0 1 .247-.033l6.397-.003c1.657 0 3.314.002 4.97.003.839.001 1.555.178 2.191.542.55.313 1.003.75 1.348 1.301.534.856.796 1.85.799 3.04.004 1.876.004 4.868.003 6.754a.809.809 0 0 1-.56.603.956.956 0 0 1-.297.048zm9.52.07c-2.587 0-4.768-1.416-5.832-3.789-1.036-2.307-.452-5.24 1.39-6.972 1.253-1.179 2.716-1.776 4.348-1.776.362 0 .739.03 1.12.086a5.925 5.925 0 0 1 5.03 5.08c.027.202.02.427-.023.652-.085.454-.287.615-.77.616h-9.428a.47.47 0 0 0-.462.578c.434 1.927 1.449 3.161 3.103 3.77.489.18.993.272 1.5.272.806 0 1.645-.233 2.493-.692.573-.31 1.107-.748 1.633-1.338a.832.832 0 0 1 .927-.212c.29.117.493.427.485.736-.006.196-.086.378-.242.557-1.034 1.178-2.266 1.934-3.66 2.248a7.302 7.302 0 0 1-1.612.184zm-.046-11.1h.125c1.096.02 1.999.312 2.76.891.747.569 1.203 1.33 1.391 2.329a.47.47 0 0 1-.465.56h-7.679a.472.472 0 0 1-.468-.543 3.452 3.452 0 0 1 .965-1.924c.86-.884 1.963-1.314 3.371-1.314zM62.842 24.675c-1.839 0-3.427-.73-4.723-2.168a5.809 5.809 0 0 1-1.466-3.22c-.283-2.247.427-4.138 2.107-5.62 1.15-1.016 2.524-1.531 4.082-1.531.175 0 .352.006.531.019 1.59.113 2.926.716 3.971 1.792 1.04 1.07 1.596 2.306 1.652 3.673.014.341-.05.588-.188.731-.142.149-.396.224-.755.224h-9.292a.47.47 0 0 0-.462.574c.43 1.938 1.452 3.176 3.127 3.784.48.174.976.263 1.474.263.807 0 1.645-.233 2.491-.692.577-.312 1.11-.75 1.634-1.337a.834.834 0 0 1 .928-.216c.303.121.508.419.477.691-.026.218-.107.432-.212.558-1.023 1.224-2.266 1.996-3.697 2.293a8.247 8.247 0 0 1-1.679.182zm.039-11.127c.747 0 1.492.172 2.214.511 1.123.526 1.815 1.445 2.057 2.73a.467.467 0 0 1-.1.389.47.47 0 0 1-.365.172h-7.684a.473.473 0 0 1-.463-.566c.26-1.288.986-2.212 2.159-2.746a5.256 5.256 0 0 1 2.182-.49zm65.417 16.286c-1.003 0-2.022-.245-3.03-.727-.46-.22-.707-.467-.8-.801-.091-.331-.003-.645.232-.818.17-.126.32-.188.46-.188.092 0 .192.029.295.084.708.38 1.563.774 2.549.82.097.003.192.005.286.005 1.494 0 2.72-.557 3.648-1.655.418-.494.661-1.054.896-1.596.099-.229.192-.446.298-.656.143-.284.267-.564.416-.899.09-.206.182-.41.278-.614a.85.85 0 0 0-.043-.834c-.396-.672-.788-1.346-1.18-2.02l-2.602-4.482c-.103-.178-.203-.36-.303-.54-.215-.391-.459-.834-.745-1.241a.94.94 0 0 1-.165-.74.875.875 0 0 1 .391-.57.878.878 0 0 1 .455-.125c.351 0 .683.194.865.506.788 1.348 1.574 2.699 2.36 4.049l1.443 2.482c.04.07.084.139.132.216l.09.142a.473.473 0 0 0 .792.013c.215-.315.343-.63.467-.933.044-.11.088-.216.135-.321.51-1.132 1.006-2.27 1.502-3.41l.616-1.41c.121-.278.245-.554.373-.828.154-.33.461-.545.782-.545.068 0 .136.01.2.028.39.11.66.546.601.97-.021.15-.1.313-.184.486a6.58 6.58 0 0 0-.1.206 1654.95 1654.95 0 0 1-2.66 5.814l-.92 1.997c-.51 1.104-1.02 2.209-1.522 3.317l-.12.27c-.32.709-.649 1.443-1.128 2.057-.785 1.006-1.748 1.714-2.864 2.106a6.611 6.611 0 0 1-2.196.385zM78.08 12.023c3.336.255 5.86 3.144 5.86 6.486v5.417a.777.777 0 0 1-.858.772c-.404-.04-.697-.41-.697-.817v-1.099c0-.1-.12-.145-.19-.073a6.336 6.336 0 0 1-5.069 1.977c-3.031-.214-5.538-2.617-5.862-5.635-.428-3.98 2.853-7.33 6.816-7.028zm-.497 11.127a4.805 4.805 0 0 1-4.803-4.797 4.805 4.805 0 0 1 4.803-4.796 4.805 4.805 0 0 1 4.802 4.796 4.805 4.805 0 0 1-4.802 4.797zM48.454 12.02c3.022.214 5.524 2.603 5.858 5.61.426 3.823-2.572 7.072-6.316 7.072-3.505 0-6.357-2.849-6.357-6.349V6.678c0-.455.393-.819.858-.772.404.04.697.41.697.817v6.7c0 .281.332.419.541.23a6.325 6.325 0 0 1 4.72-1.632zm-.458 11.13a4.805 4.805 0 0 1-4.802-4.797 4.805 4.805 0 0 1 4.802-4.796 4.805 4.805 0 0 1 4.802 4.796 4.804 4.804 0 0 1-4.802 4.797zm72.912 1.227a.83.83 0 0 1-.83-.83v-6.933a4.264 4.264 0 0 1 4.262-4.257h1.809a.83.83 0 1 1 0 1.658h-1.809a2.604 2.604 0 0 0-2.602 2.6v6.933a.83.83 0 0 1-.83.829zM14.985 0C6.743 0 0 6.824 0 15.166c0 7.053 4.822 13.02 11.294 14.695 1.146.297 2.255-.611 2.255-1.808v-5.712c0-1.353-1.617-2.031-2.562-1.073l-.023.023c-.506.512-1.321.644-1.904.223a1.468 1.468 0 0 1-.189-2.216l.086-.086c.945-.957.276-2.593-1.062-2.593H4.418c-.716 0-1.384-.49-1.503-1.205a1.452 1.452 0 0 1 1.416-1.702h3.565c1.337 0 2.006-1.635 1.061-2.592l-2.46-2.49c-.506-.511-.635-1.336-.22-1.926a1.429 1.429 0 0 1 2.19-.19l2.52 2.551c.946.957 2.563.28 2.563-1.074V7.89c0-.881.784-1.585 1.68-1.433.707.12 1.191.796 1.191 1.521v.013c0 1.353 1.617 2.03 2.562 1.074l2.46-2.489c.506-.512 1.32-.643 1.904-.223.74.534.803 1.593.188 2.216l-2.521 2.551c-.946.957-.276 2.593 1.06 2.593h-.408c.709 0 1.371.478 1.499 1.184a1.452 1.452 0 0 1-1.412 1.722h.322c-1.337 0-2.007 1.636-1.061 2.593l2.752 2.785c.506.513.635 1.337.22 1.927a1.429 1.429 0 0 1-2.19.19l-2.813-2.847c-.945-.957-2.562-.279-2.562 1.074v5.712c0 1.197 1.11 2.105 2.255 1.808 6.472-1.674 11.295-7.641 11.295-14.694C29.97 6.825 23.227 0 14.985 0zm1.424 2.697c0 .795-.637 1.44-1.424 1.44a1.432 1.432 0 0 1-1.423-1.44c0-.796.637-1.441 1.423-1.441.787 0 1.424.645 1.424 1.44zm11.754 12.168c0 .795-.637 1.44-1.424 1.44a1.432 1.432 0 0 1-1.423-1.44c0-.796.637-1.441 1.423-1.441.787 0 1.424.645 1.424 1.44zM8.034 23.017c0 .796-.637 1.441-1.424 1.441a1.433 1.433 0 0 1-1.423-1.441c0-.796.637-1.441 1.424-1.441.786 0 1.423.645 1.423 1.441z"></path></g></svg>